<svg width="88" height="56" viewBox="0 0 88 56" fill="none" xmlns="http://www.w3.org/2000/svg">
<path d="M55.7919 46.7387C56.04 46.6211 56.3362 46.6578 56.5364 46.8457C58.7914 48.9619 60.228 51.8381 60.2304 55.4571C60.2305 55.6465 60.1279 55.8211 59.9625 55.9134C59.7972 56.0057 59.5947 56.0011 59.4336 55.9015L59.4326 55.901C59.4318 55.9005 59.4304 55.8997 59.4286 55.8986C59.4248 55.8963 59.419 55.8927 59.4112 55.8879C59.3956 55.8784 59.372 55.864 59.3406 55.8451C59.2777 55.8073 59.1837 55.7514 59.0614 55.6799C58.8165 55.5369 58.4578 55.3318 58.0052 55.0856C57.0994 54.5928 55.8195 53.9359 54.3254 53.2804C51.3216 51.9625 47.5124 50.6777 44.1454 50.6933C40.8111 50.7088 36.95 52.0001 33.885 53.3164C32.3605 53.9711 31.0484 54.6251 30.1177 55.1152C29.6526 55.3602 29.2832 55.564 29.0309 55.7062C28.9047 55.7772 28.8078 55.8329 28.7428 55.8705C28.7104 55.8893 28.6859 55.9037 28.6698 55.9131C28.6617 55.9179 28.6556 55.9214 28.6517 55.9237C28.6498 55.9248 28.6484 55.9257 28.6475 55.9262C28.6472 55.9264 28.6469 55.9266 28.6467 55.9267C28.6466 55.9267 28.6465 55.9267 28.6465 55.9267C28.6464 55.9267 28.6463 55.9268 28.6462 55.9268C28.4864 56.0217 28.2883 56.0245 28.1259 55.9342C27.9634 55.8438 27.8613 55.6738 27.8577 55.4879C27.7885 51.8779 29.145 49.0064 31.3296 46.8887C31.5288 46.6956 31.8283 46.6559 32.0794 46.774C35.7325 48.492 39.6482 49.3511 43.8264 49.3511C43.8504 49.3511 43.8744 49.3507 43.8983 49.3505C43.9222 49.3507 43.9462 49.3511 43.9701 49.3511C48.1769 49.3511 52.1175 48.4802 55.7919 46.7387ZM19.1849 37.1085C19.3983 36.5667 20.1641 36.4974 20.485 36.9833C21.4265 38.409 22.5583 39.7654 23.8805 41.0526C24.1683 41.3327 24.1652 41.8014 23.8483 42.0481C21.8964 43.5677 19.4437 44.4636 16.4983 44.4109C16.3124 44.4076 16.1423 44.3057 16.0517 44.1434C15.9611 43.9811 15.9638 43.7828 16.0585 43.6229C16.0585 43.6228 16.0585 43.6228 16.0585 43.6227C16.0585 43.6227 16.0585 43.6226 16.0585 43.6226C16.0586 43.6224 16.0588 43.622 16.059 43.6217C16.0595 43.6209 16.0604 43.6193 16.0616 43.6174C16.0639 43.6135 16.0674 43.6075 16.0721 43.5994C16.0816 43.5833 16.0959 43.5587 16.1146 43.5263C16.1522 43.4613 16.2077 43.3642 16.2786 43.238C16.4204 42.9855 16.6237 42.6159 16.8681 42.1504C17.3571 41.2192 18.0093 39.9061 18.662 38.3808C18.8378 37.9699 19.0131 37.5448 19.1849 37.1085ZM67.3169 36.9752C67.6373 36.4896 68.4021 36.5579 68.6163 37.0988C68.7859 37.5269 68.9587 37.9443 69.132 38.3478C69.7866 39.8723 70.4407 41.1844 70.9309 42.1151C71.1758 42.5802 71.3796 42.9496 71.5218 43.2019C71.5928 43.328 71.6484 43.425 71.6861 43.4899C71.7048 43.5224 71.7192 43.5469 71.7287 43.5631C71.7334 43.5711 71.737 43.5772 71.7393 43.581L71.7418 43.5854C71.742 43.5856 71.7422 43.586 71.7423 43.5862C71.7423 43.5862 71.7423 43.5863 71.7423 43.5863C71.7423 43.5864 71.7424 43.5865 71.7424 43.5865C71.8373 43.7463 71.8401 43.9445 71.7498 44.1069C71.6594 44.2694 71.4894 44.3715 71.3035 44.3751C68.3658 44.4315 65.9171 43.5435 63.9658 42.0336C63.6477 41.7875 63.6438 41.318 63.9317 41.0372C65.2497 39.7522 66.3781 38.3982 67.3169 36.9752ZM53.2817 13.6581C56.3611 13.6581 59.1105 14.7327 61.5301 16.882C64.0474 19.1336 65.306 21.8329 65.306 24.9801C65.306 30.5067 63.0087 35.0355 58.4141 38.5664C54.2593 41.7647 49.4446 43.3639 43.9701 43.3639C43.9525 43.3639 43.935 43.3636 43.9174 43.3635C43.9174 43.3635 43.9174 43.3634 43.9174 43.3634C43.9174 43.3634 43.9174 43.3634 43.9173 43.3634H43.8793C43.8793 43.3634 43.8792 43.3634 43.8792 43.3634C43.8792 43.3634 43.8792 43.3635 43.8792 43.3635C43.8616 43.3636 43.844 43.3639 43.8264 43.3639C38.3519 43.3639 33.5373 41.7647 29.3826 38.5664C24.7879 35.0355 22.4905 30.5067 22.4905 24.9801C22.4905 21.8329 23.7492 19.1336 26.2665 16.882C28.686 14.7327 31.4355 13.6581 34.5148 13.6581C35.248 13.6581 35.6146 13.9396 35.6146 14.5025C35.6146 14.528 35.0281 15.5004 33.855 17.4193C32.6819 19.3127 32.0954 21.334 32.0954 23.4832C32.0954 27.1933 33.354 30.1613 35.8713 32.3873C38.0256 34.2707 40.6946 35.2979 43.8782 35.4698C43.8788 35.4698 43.8792 35.4703 43.8792 35.4709C43.8792 35.4715 43.8798 35.472 43.8804 35.472C43.8864 35.4716 43.8923 35.4712 43.8983 35.4709C43.9043 35.4712 43.9103 35.4716 43.9162 35.472C43.9169 35.472 43.9174 35.4715 43.9174 35.4709C43.9174 35.4703 43.9178 35.4698 43.9184 35.4698C47.102 35.2979 49.771 34.2707 51.9253 32.3873C54.4426 30.1613 55.7012 27.1933 55.7012 23.4832C55.7012 21.334 55.1147 19.3127 53.9416 17.4193C52.7685 15.5004 52.1819 14.528 52.1819 14.5025C52.1819 13.9396 52.5485 13.6581 53.2817 13.6581ZM43.8983 14.6568C45.6735 14.6749 47.1516 15.3396 48.3326 16.6517C49.5301 17.9566 50.129 19.5557 50.129 21.4491C50.129 23.4193 49.4813 25.0569 48.186 26.3618C47.0158 27.5397 45.5865 28.1745 43.8983 28.2678C42.2101 28.1745 40.7808 27.5397 39.6106 26.3618C38.3153 25.0569 37.6676 23.4193 37.6676 21.4491C37.6676 19.5557 38.2664 17.9566 39.464 16.6517C40.645 15.3396 42.1231 14.6749 43.8983 14.6568ZM16.4869 12.0382C18.0336 12.0372 19.445 12.2985 20.7197 12.7738C21.1628 12.939 21.2577 13.5053 20.9406 13.8561C20.273 14.5947 19.69 15.3877 19.1917 16.2351C18.8961 16.7378 18.1218 16.7313 17.8658 16.2074C17.4967 15.4522 17.1508 14.7933 16.8613 14.2629C16.6144 13.8106 16.4089 13.4521 16.2656 13.2075C16.194 13.0852 16.1379 12.9914 16.1 12.9285C16.0811 12.8972 16.0666 12.8734 16.0571 12.8578C16.0524 12.8501 16.0487 12.8443 16.0464 12.8406C16.0453 12.8388 16.0445 12.8374 16.044 12.8365L16.0434 12.8355C15.9437 12.6746 15.9389 12.4721 16.0309 12.3066C16.123 12.1411 16.2975 12.0384 16.4869 12.0382ZM71.2727 12.0024C71.4621 12.0023 71.6367 12.1049 71.729 12.2702C71.8213 12.4356 71.8167 12.638 71.7171 12.7992L71.7166 12.8001C71.7161 12.8009 71.7153 12.8024 71.7142 12.8042C71.7119 12.8079 71.7082 12.8137 71.7035 12.8214C71.694 12.8371 71.6796 12.8608 71.6607 12.8922C71.6229 12.955 71.567 13.049 71.4955 13.1714C71.3525 13.4162 71.1474 13.775 70.9012 14.2276C70.6138 14.7559 70.2706 15.4115 69.9044 16.1626C69.6493 16.686 68.8768 16.6942 68.58 16.1933C68.0801 15.3496 67.4959 14.56 66.8274 13.8247C66.5089 13.4744 66.603 12.9071 67.0464 12.7413C68.319 12.2657 69.7282 12.0034 71.2727 12.0024ZM59.3971 0.0783774C59.558 -0.0213816 59.7605 -0.0262716 59.926 0.0657781C60.0915 0.157856 60.1942 0.332372 60.1944 0.521755C60.1963 3.50725 59.2214 5.98838 57.6156 7.9553C57.4484 8.16011 57.1735 8.23771 56.9188 8.16673C53.7135 7.2734 50.0327 6.82661 45.8764 6.82661C45.3131 6.82661 44.6861 6.87453 43.9952 6.97046C43.931 6.97939 43.8657 6.97939 43.8014 6.97046C43.1105 6.87453 42.4834 6.82661 41.9201 6.82661C37.7848 6.82661 34.1201 7.26882 30.9263 8.15316C30.668 8.22465 30.3896 8.1435 30.2239 7.933C28.6805 5.97311 27.7686 3.50384 27.8217 0.533194C27.8251 0.347315 27.927 0.177186 28.0894 0.0865835C28.2517 -0.00395865 28.4499 -0.00133602 28.6098 0.0933358C28.6098 0.093365 28.6099 0.0933804 28.6099 0.0933804C28.61 0.0933804 28.61 0.0933928 28.6101 0.0934169C28.6103 0.0935038 28.6107 0.0937275 28.6109 0.0938778L28.6152 0.0964474C28.6191 0.0987398 28.6253 0.102257 28.6333 0.106974C28.6495 0.116446 28.674 0.130766 28.7064 0.149497C28.7714 0.187041 28.8684 0.242581 28.9946 0.313453C29.2472 0.455256 29.6168 0.658607 30.0822 0.902966C31.0135 1.39193 32.3266 2.04419 33.8519 2.69687C36.9186 4.00909 40.7814 5.29537 44.1157 5.30649C47.4827 5.31769 51.2902 4.02794 54.2923 2.70615C55.7856 2.04865 57.0646 1.39014 57.9697 0.896169C58.422 0.649304 58.7806 0.443734 59.0252 0.300439C59.1475 0.228826 59.2413 0.172812 59.3041 0.134908C59.3355 0.11598 59.3592 0.101511 59.3748 0.0919713C59.3825 0.087213 59.3884 0.0835721 59.3921 0.0812785C59.3939 0.0801573 59.3953 0.0793866 59.3961 0.0788747L59.3971 0.0783774Z" fill="#FFB752"/>
<path d="M15.8184 28.8141C15.8131 28.6004 15.678 28.4116 15.4775 28.3374C13.4906 27.6029 12.1572 26.8669 11.1079 25.8222C10.0559 24.775 9.25033 23.3787 8.39105 21.2517C8.31026 21.0517 8.11488 20.922 7.89926 20.9251C7.68363 20.9283 7.49214 21.0638 7.41727 21.266C6.67922 23.2596 5.94535 24.6076 4.90259 25.6628C3.85879 26.719 2.466 27.5216 0.337605 28.3502C0.134825 28.4292 0.00231705 28.6256 0.00498369 28.8432C0.00767417 29.0608 0.144995 29.254 0.349649 29.3279C2.42055 30.076 3.78456 30.8389 4.83213 31.8877C5.88214 32.9389 6.65416 34.3169 7.4697 36.3708C7.54963 36.5721 7.7455 36.7033 7.96201 36.7004C8.17852 36.6975 8.37091 36.5612 8.44542 36.3579C9.13085 34.4874 9.83136 33.1989 10.8671 32.1478C11.9071 31.0924 13.3217 30.2391 15.5017 29.3072C15.6983 29.2232 15.8237 29.0278 15.8184 28.8141Z" fill="#FFB752"/>
<path d="M87.8436 28.8141C87.8382 28.6004 87.7032 28.4116 87.5027 28.3374C85.5158 27.6029 84.1824 26.8669 83.133 25.8222C82.0811 24.775 81.2755 23.3787 80.4162 21.2517C80.3354 21.0517 80.14 20.922 79.9244 20.9251C79.7088 20.9283 79.5173 21.0638 79.4424 21.266C78.7044 23.2596 77.9705 24.6076 76.9277 25.6628C75.8839 26.719 74.4911 27.5216 72.3628 28.3502C72.16 28.4292 72.0275 28.6256 72.0301 28.8432C72.0328 29.0608 72.1701 29.254 72.3748 29.3279C74.4457 30.076 75.8097 30.8389 76.8573 31.8877C77.9073 32.9389 78.6793 34.3169 79.4949 36.3708C79.5748 36.5721 79.7706 36.7033 79.9872 36.7004C80.2037 36.6975 80.3961 36.5612 80.4706 36.3579C81.156 34.4874 81.8565 33.1989 82.8922 32.1478C83.9322 31.0924 85.3468 30.2391 87.5268 29.3072C87.7234 29.2232 87.8489 29.0278 87.8436 28.8141Z" fill="#FFB752"/>
</svg>
