<svg width="280" height="56" viewBox="0 0 280 56" fill="none" xmlns="http://www.w3.org/2000/svg">
<path d="M55.7919 46.7387C56.04 46.6211 56.3362 46.6578 56.5364 46.8457C58.7914 48.9619 60.228 51.8381 60.2304 55.4571C60.2305 55.6465 60.1279 55.8211 59.9625 55.9134C59.7972 56.0057 59.5947 56.0011 59.4336 55.9015L59.4326 55.901C59.4318 55.9005 59.4304 55.8997 59.4286 55.8986C59.4248 55.8963 59.419 55.8927 59.4112 55.8879C59.3956 55.8784 59.372 55.864 59.3406 55.8451C59.2777 55.8073 59.1837 55.7514 59.0614 55.6799C58.8165 55.5369 58.4578 55.3318 58.0052 55.0856C57.0994 54.5928 55.8195 53.9359 54.3254 53.2804C51.3216 51.9625 47.5124 50.6777 44.1454 50.6933C40.8111 50.7088 36.95 52.0001 33.885 53.3164C32.3605 53.9711 31.0484 54.6251 30.1177 55.1152C29.6526 55.3602 29.2832 55.564 29.0309 55.7062C28.9047 55.7772 28.8078 55.8329 28.7428 55.8705C28.7104 55.8893 28.6859 55.9037 28.6698 55.9131C28.6617 55.9179 28.6556 55.9214 28.6517 55.9237C28.6498 55.9248 28.6484 55.9257 28.6475 55.9262C28.6472 55.9264 28.6469 55.9266 28.6467 55.9267C28.6466 55.9267 28.6465 55.9267 28.6465 55.9267C28.6464 55.9267 28.6463 55.9268 28.6462 55.9268C28.4864 56.0217 28.2883 56.0245 28.1259 55.9342C27.9634 55.8438 27.8613 55.6738 27.8577 55.4879C27.7885 51.8779 29.145 49.0064 31.3296 46.8887C31.5288 46.6956 31.8283 46.6559 32.0794 46.774C35.7325 48.492 39.6482 49.3511 43.8264 49.3511C43.8504 49.3511 43.8744 49.3507 43.8983 49.3505C43.9222 49.3507 43.9462 49.3511 43.9701 49.3511C48.1769 49.3511 52.1175 48.4802 55.7919 46.7387ZM19.1849 37.1085C19.3983 36.5667 20.1641 36.4974 20.485 36.9833C21.4265 38.409 22.5583 39.7654 23.8805 41.0526C24.1683 41.3327 24.1652 41.8014 23.8483 42.0481C21.8964 43.5677 19.4437 44.4636 16.4983 44.4109C16.3124 44.4076 16.1423 44.3057 16.0517 44.1434C15.9611 43.9811 15.9638 43.7828 16.0585 43.6229C16.0585 43.6228 16.0585 43.6228 16.0585 43.6227C16.0585 43.6227 16.0585 43.6226 16.0585 43.6226C16.0586 43.6224 16.0588 43.622 16.059 43.6217C16.0595 43.6209 16.0604 43.6193 16.0616 43.6174C16.0639 43.6135 16.0674 43.6075 16.0721 43.5994C16.0816 43.5833 16.0959 43.5587 16.1146 43.5263C16.1522 43.4613 16.2077 43.3642 16.2786 43.238C16.4204 42.9855 16.6237 42.6159 16.8681 42.1504C17.3571 41.2192 18.0093 39.9061 18.662 38.3808C18.8378 37.9699 19.0131 37.5448 19.1849 37.1085ZM67.3169 36.9752C67.6373 36.4896 68.4021 36.5579 68.6163 37.0988C68.7859 37.5269 68.9587 37.9443 69.132 38.3478C69.7866 39.8723 70.4407 41.1844 70.9309 42.1151C71.1758 42.5802 71.3796 42.9496 71.5218 43.2019C71.5928 43.328 71.6484 43.425 71.6861 43.4899C71.7048 43.5224 71.7192 43.5469 71.7287 43.5631C71.7334 43.5711 71.737 43.5772 71.7393 43.581L71.7418 43.5854C71.742 43.5856 71.7422 43.586 71.7423 43.5862C71.7423 43.5862 71.7423 43.5863 71.7423 43.5863C71.7423 43.5864 71.7424 43.5865 71.7424 43.5865C71.8373 43.7463 71.8401 43.9445 71.7498 44.1069C71.6594 44.2694 71.4894 44.3715 71.3035 44.3751C68.3658 44.4315 65.9171 43.5435 63.9658 42.0336C63.6477 41.7875 63.6438 41.318 63.9317 41.0372C65.2497 39.7522 66.3781 38.3982 67.3169 36.9752ZM53.2817 13.6581C56.3611 13.6581 59.1105 14.7327 61.5301 16.882C64.0474 19.1336 65.306 21.8329 65.306 24.9801C65.306 30.5067 63.0087 35.0355 58.4141 38.5664C54.2593 41.7647 49.4446 43.3639 43.9701 43.3639C43.9525 43.3639 43.935 43.3636 43.9174 43.3635C43.9174 43.3635 43.9174 43.3634 43.9174 43.3634C43.9174 43.3634 43.9174 43.3634 43.9173 43.3634H43.8793C43.8793 43.3634 43.8792 43.3634 43.8792 43.3634C43.8792 43.3634 43.8792 43.3635 43.8792 43.3635C43.8616 43.3636 43.844 43.3639 43.8264 43.3639C38.3519 43.3639 33.5373 41.7647 29.3826 38.5664C24.7879 35.0355 22.4905 30.5067 22.4905 24.9801C22.4905 21.8329 23.7492 19.1336 26.2665 16.882C28.686 14.7327 31.4355 13.6581 34.5148 13.6581C35.248 13.6581 35.6146 13.9396 35.6146 14.5025C35.6146 14.528 35.0281 15.5004 33.855 17.4193C32.6819 19.3127 32.0954 21.334 32.0954 23.4832C32.0954 27.1933 33.354 30.1613 35.8713 32.3873C38.0256 34.2707 40.6946 35.2979 43.8782 35.4698C43.8788 35.4698 43.8792 35.4703 43.8792 35.4709C43.8792 35.4715 43.8798 35.472 43.8804 35.472C43.8864 35.4716 43.8923 35.4712 43.8983 35.4709C43.9043 35.4712 43.9103 35.4716 43.9162 35.472C43.9169 35.472 43.9174 35.4715 43.9174 35.4709C43.9174 35.4703 43.9178 35.4698 43.9184 35.4698C47.102 35.2979 49.771 34.2707 51.9253 32.3873C54.4426 30.1613 55.7012 27.1933 55.7012 23.4832C55.7012 21.334 55.1147 19.3127 53.9416 17.4193C52.7685 15.5004 52.1819 14.528 52.1819 14.5025C52.1819 13.9396 52.5485 13.6581 53.2817 13.6581ZM43.8983 14.6568C45.6735 14.6749 47.1516 15.3396 48.3326 16.6517C49.5301 17.9566 50.129 19.5557 50.129 21.4491C50.129 23.4193 49.4813 25.0569 48.186 26.3618C47.0158 27.5397 45.5865 28.1745 43.8983 28.2678C42.2101 28.1745 40.7808 27.5397 39.6106 26.3618C38.3153 25.0569 37.6676 23.4193 37.6676 21.4491C37.6676 19.5557 38.2664 17.9566 39.464 16.6517C40.645 15.3396 42.1231 14.6749 43.8983 14.6568ZM16.4869 12.0382C18.0336 12.0372 19.445 12.2985 20.7197 12.7738C21.1628 12.939 21.2577 13.5053 20.9406 13.8561C20.273 14.5947 19.69 15.3877 19.1917 16.2351C18.8961 16.7378 18.1218 16.7313 17.8658 16.2074C17.4967 15.4522 17.1508 14.7933 16.8613 14.2629C16.6144 13.8106 16.4089 13.4521 16.2656 13.2075C16.194 13.0852 16.1379 12.9914 16.1 12.9285C16.0811 12.8972 16.0666 12.8734 16.0571 12.8578C16.0524 12.8501 16.0487 12.8443 16.0464 12.8406C16.0453 12.8388 16.0445 12.8374 16.044 12.8365L16.0434 12.8355C15.9437 12.6746 15.9389 12.4721 16.0309 12.3066C16.123 12.1411 16.2975 12.0384 16.4869 12.0382ZM71.2727 12.0024C71.4621 12.0023 71.6367 12.1049 71.729 12.2702C71.8213 12.4356 71.8167 12.638 71.7171 12.7992L71.7166 12.8001C71.7161 12.8009 71.7153 12.8024 71.7142 12.8042C71.7119 12.8079 71.7082 12.8137 71.7035 12.8214C71.694 12.8371 71.6796 12.8608 71.6607 12.8922C71.6229 12.955 71.567 13.049 71.4955 13.1714C71.3525 13.4162 71.1474 13.775 70.9012 14.2276C70.6138 14.7559 70.2706 15.4115 69.9044 16.1626C69.6493 16.686 68.8768 16.6942 68.58 16.1933C68.0801 15.3496 67.4959 14.56 66.8274 13.8247C66.5089 13.4744 66.603 12.9071 67.0464 12.7413C68.319 12.2657 69.7282 12.0034 71.2727 12.0024ZM59.3971 0.0783774C59.558 -0.0213816 59.7605 -0.0262716 59.926 0.0657781C60.0915 0.157856 60.1942 0.332372 60.1944 0.521755C60.1963 3.50725 59.2214 5.98838 57.6156 7.9553C57.4484 8.16011 57.1735 8.23771 56.9188 8.16673C53.7135 7.2734 50.0327 6.82661 45.8764 6.82661C45.3131 6.82661 44.6861 6.87453 43.9952 6.97046C43.931 6.97939 43.8657 6.97939 43.8014 6.97046C43.1105 6.87453 42.4834 6.82661 41.9201 6.82661C37.7848 6.82661 34.1201 7.26882 30.9263 8.15316C30.668 8.22465 30.3896 8.1435 30.2239 7.933C28.6805 5.97311 27.7686 3.50384 27.8217 0.533194C27.8251 0.347315 27.927 0.177186 28.0894 0.0865835C28.2517 -0.00395865 28.4499 -0.00133602 28.6098 0.0933358C28.6098 0.093365 28.6099 0.0933804 28.6099 0.0933804C28.61 0.0933804 28.61 0.0933928 28.6101 0.0934169C28.6103 0.0935038 28.6107 0.0937275 28.6109 0.0938778L28.6152 0.0964474C28.6191 0.0987398 28.6253 0.102257 28.6333 0.106974C28.6495 0.116446 28.674 0.130766 28.7064 0.149497C28.7714 0.187041 28.8684 0.242581 28.9946 0.313453C29.2472 0.455256 29.6168 0.658607 30.0822 0.902966C31.0135 1.39193 32.3266 2.04419 33.8519 2.69687C36.9186 4.00909 40.7814 5.29537 44.1157 5.30649C47.4827 5.31769 51.2902 4.02794 54.2923 2.70615C55.7856 2.04865 57.0646 1.39014 57.9697 0.896169C58.422 0.649304 58.7806 0.443734 59.0252 0.300439C59.1475 0.228826 59.2413 0.172812 59.3041 0.134908C59.3355 0.11598 59.3592 0.101511 59.3748 0.0919713C59.3825 0.087213 59.3884 0.0835721 59.3921 0.0812785C59.3939 0.0801573 59.3953 0.0793866 59.3961 0.0788747L59.3971 0.0783774Z" fill="#FFB752"/>
<path d="M15.8184 28.8141C15.8131 28.6004 15.678 28.4116 15.4775 28.3374C13.4906 27.6029 12.1572 26.8669 11.1079 25.8222C10.0559 24.775 9.25033 23.3787 8.39105 21.2517C8.31026 21.0517 8.11488 20.922 7.89926 20.9251C7.68363 20.9283 7.49214 21.0638 7.41727 21.266C6.67922 23.2596 5.94535 24.6076 4.90259 25.6628C3.85879 26.719 2.466 27.5216 0.337605 28.3502C0.134825 28.4292 0.00231705 28.6256 0.00498369 28.8432C0.00767417 29.0608 0.144995 29.254 0.349649 29.3279C2.42055 30.076 3.78456 30.8389 4.83213 31.8877C5.88214 32.9389 6.65416 34.3169 7.4697 36.3708C7.54963 36.5721 7.7455 36.7033 7.96201 36.7004C8.17852 36.6975 8.37091 36.5612 8.44542 36.3579C9.13085 34.4874 9.83136 33.1989 10.8671 32.1478C11.9071 31.0924 13.3217 30.2391 15.5017 29.3072C15.6983 29.2232 15.8237 29.0278 15.8184 28.8141Z" fill="#FFB752"/>
<path d="M87.8436 28.8141C87.8382 28.6004 87.7032 28.4116 87.5027 28.3374C85.5158 27.6029 84.1824 26.8669 83.133 25.8222C82.0811 24.775 81.2755 23.3787 80.4162 21.2517C80.3354 21.0517 80.14 20.922 79.9244 20.9251C79.7088 20.9283 79.5173 21.0638 79.4424 21.266C78.7044 23.2596 77.9705 24.6076 76.9277 25.6628C75.8839 26.719 74.4911 27.5216 72.3628 28.3502C72.16 28.4292 72.0275 28.6256 72.0301 28.8432C72.0328 29.0608 72.1701 29.254 72.3748 29.3279C74.4457 30.076 75.8097 30.8389 76.8573 31.8877C77.9073 32.9389 78.6793 34.3169 79.4949 36.3708C79.5748 36.5721 79.7706 36.7033 79.9872 36.7004C80.2037 36.6975 80.3961 36.5612 80.4706 36.3579C81.156 34.4874 81.8565 33.1989 82.8922 32.1478C83.9322 31.0924 85.3468 30.2391 87.5268 29.3072C87.7234 29.2232 87.8489 29.0278 87.8436 28.8141Z" fill="#FFB752"/>
<path d="M114.469 15.0056C117.045 15.0056 119.293 15.8981 121.213 17.6831C121.499 18.0199 121.945 18.5081 122.551 19.1479C122.602 19.1985 122.652 19.2238 122.703 19.2238C122.804 19.2233 122.947 18.6929 123.132 17.6325C123.317 16.5718 123.553 16.0415 123.839 16.0413C124.294 16.0413 125.144 16.1672 126.39 16.4198C127.77 16.7228 128.461 16.9924 128.461 17.2281C128.461 17.2955 128.436 17.4474 128.385 17.6831C127.729 21.5392 127.4 24.8649 127.4 27.6602C127.4 27.8286 127.611 31.6093 128.031 39.0018L128.057 39.3557C128.074 39.8439 127.846 40.0881 127.375 40.0881C126.92 40.0881 126.221 40.1387 125.279 40.2398C124.353 40.3576 123.662 40.4167 123.208 40.4167C122.888 40.4166 122.644 39.827 122.475 38.6485C122.307 37.4701 122.147 36.8807 121.996 36.8803C121.895 36.8803 121.44 37.2083 120.632 37.8649C119.639 38.6731 118.713 39.2879 117.854 39.7089C116.524 40.3825 115.193 40.7194 113.863 40.7194C110.597 40.7194 107.844 39.4145 105.605 36.8045C103.484 34.3123 102.423 31.4073 102.423 28.09C102.423 24.3516 103.492 21.2617 105.63 18.82C107.87 16.2772 110.816 15.0056 114.469 15.0056ZM193.322 15.0056C195.898 15.0056 198.146 15.8981 200.065 17.6831C200.352 18.0199 200.798 18.5081 201.404 19.1479C201.454 19.1985 201.505 19.2238 201.556 19.2238C201.657 19.2233 201.8 18.6929 201.985 17.6325C202.17 16.5718 202.406 16.0415 202.692 16.0413C203.146 16.0413 203.997 16.1672 205.243 16.4198C206.623 16.7228 207.313 16.9924 207.314 17.2281C207.314 17.2955 207.289 17.4474 207.238 17.6831C206.581 21.5392 206.253 24.8649 206.253 27.6602C206.253 27.8286 206.463 31.6093 206.884 39.0018L206.909 39.3557C206.926 39.8439 206.699 40.0881 206.228 40.0881C205.773 40.0881 205.074 40.1387 204.131 40.2398C203.205 40.3576 202.515 40.4167 202.061 40.4167C201.741 40.4166 201.496 39.827 201.328 38.6485C201.16 37.4701 201 36.8807 200.848 36.8803C200.747 36.8803 200.293 37.2083 199.485 37.8649C198.491 38.6731 197.565 39.2879 196.707 39.7089C195.377 40.3825 194.046 40.7194 192.716 40.7194C189.45 40.7194 186.697 39.4145 184.458 36.8045C182.336 34.3123 181.275 31.4073 181.275 28.09C181.275 24.3516 182.345 21.2617 184.483 18.82C186.722 16.2772 189.668 15.0056 193.322 15.0056ZM268.392 14.8033C271.557 14.8033 274.201 15.9653 276.322 18.2891C278.393 20.5456 279.429 23.2903 279.429 26.5234C279.429 27.7695 278.89 28.6036 277.812 29.0246C277.087 29.2941 271.876 29.7907 262.179 30.5147C262.398 31.9966 263.215 33.2592 264.629 34.3033C265.976 35.2968 267.424 35.794 268.973 35.794C271.633 35.794 274.075 34.935 276.297 33.2176C276.566 32.9987 276.836 32.7793 277.105 32.5603C277.24 32.5603 277.324 32.5773 277.358 32.6109C277.409 32.6446 277.729 33.234 278.318 34.3791C278.907 35.5068 279.201 36.1132 279.201 36.1978C279.201 36.2989 279.067 36.493 278.798 36.7792C276.323 39.4061 273.149 40.7194 269.276 40.7194C265.37 40.7194 262.255 39.5574 259.932 37.2336C257.608 34.8929 256.446 31.7776 256.446 27.8878C256.446 24.4188 257.557 21.3958 259.78 18.8193C262.12 16.1419 264.991 14.8034 268.392 14.8033ZM223.666 15.0574C227.135 15.0574 230.048 16.3206 232.405 18.8466C234.728 21.3051 235.89 24.2855 235.89 27.7879C235.89 30.7501 235.073 33.3482 233.439 35.5827C238.146 35.5153 242.924 35.439 242.923 35.4388C246.105 35.4388 247.696 34.4624 247.696 32.5091C247.696 31.583 246.998 30.7326 245.6 29.958C243.327 28.7119 242.023 27.9452 241.686 27.659C240.288 26.4634 239.589 24.8976 239.589 22.9611C239.589 20.4352 240.541 18.465 242.444 17.0505C244.161 15.7877 246.332 15.156 248.959 15.1559C249.195 15.1559 249.363 15.2656 249.464 15.4845C249.582 15.7037 249.793 16.3856 250.096 17.5301C250.416 18.6752 250.575 19.3659 250.575 19.6017C250.575 19.7868 250.415 19.9044 250.096 19.9549C249.018 20.1065 247.932 20.2499 246.837 20.3846C245.541 20.7383 244.893 21.4454 244.893 22.5061C244.893 23.2638 245.575 24.0305 246.939 24.8051C248.959 25.9333 250.239 26.75 250.778 27.2551C252.158 28.5686 252.848 30.2525 252.848 32.3069C252.848 34.816 251.847 36.8283 249.843 38.3439C248.025 39.7247 245.81 40.4154 243.201 40.4154C242.284 40.4155 227.184 40.6511 224.198 40.6591C224.022 40.6659 223.845 40.6701 223.666 40.6701C220.164 40.6701 217.234 39.3907 214.877 36.8311C212.571 34.3557 211.417 31.358 211.417 27.8385C211.417 24.3192 212.571 21.3219 214.877 18.8466C217.251 16.3206 220.181 15.0574 223.666 15.0574ZM158.841 4.0957C159.077 4.09581 159.194 4.29782 159.194 4.70173C159.194 5.61107 159.152 6.96712 159.068 8.76894C158.984 10.5706 158.942 11.9262 158.942 12.8355V19.3521C158.942 19.7056 159.018 19.8828 159.169 19.883C159.573 19.5462 160.18 19.0489 160.988 18.3922C163.816 16.2033 166.51 15.1087 169.069 15.1086C171.561 15.1086 173.599 15.7487 175.181 17.0285C176.899 18.4261 177.757 20.3373 177.757 22.7621C177.757 27.1403 175.728 30.0706 171.671 31.5525C171.671 32.4113 172.512 33.9692 174.196 36.2257C175.88 38.4654 176.722 39.5851 176.722 39.5851C176.722 39.8377 175.88 40.0058 174.196 40.09C173.085 40.1405 172.252 40.1659 171.696 40.1659C170.501 40.1659 169.751 39.9134 169.448 39.4082C168.657 38.061 167.411 36.0993 165.71 33.5229C165.508 33.2198 163.682 33.0932 160.23 33.1437L159.245 33.169V39.4082C159.245 39.9302 159.06 40.1911 158.689 40.1911C158.151 40.1911 157.351 40.1827 156.29 40.1659C155.246 40.149 154.455 40.1406 153.916 40.1406C153.546 40.1406 153.36 39.8121 153.36 39.1554V23.4446C153.36 21.3902 153.277 18.3165 153.108 14.2245C152.957 10.1326 152.881 7.05947 152.881 5.00507C152.881 4.70204 153.041 4.53389 153.36 4.50016C153.916 4.48332 154.758 4.44956 155.886 4.39904C156.122 4.38219 156.619 4.32312 157.376 4.22209C157.982 4.13791 158.471 4.0957 158.841 4.0957ZM138.65 15.5403C138.891 15.5988 139.052 16.0935 139.131 17.0246C139.215 18.0181 139.366 18.5153 139.585 18.5153C139.619 18.5153 139.661 18.4984 139.711 18.4648C140.402 18.027 141.092 17.5888 141.782 17.151C142.54 16.6963 143.315 16.3594 144.106 16.1405C144.762 15.9385 145.604 15.8378 146.631 15.8378C147.944 15.8378 148.601 16.0144 148.601 16.368C148.601 18.2203 148.475 19.9042 148.222 21.4198C148.172 21.807 148.004 22.0004 147.717 22.0005C147.364 22.0005 146.825 21.9674 146.101 21.9C145.394 21.8158 144.855 21.7736 144.484 21.7736C142.363 21.7737 141.008 22.3715 140.418 23.5671C140.065 24.2912 139.888 25.7982 139.888 28.088V30.8667C139.888 31.8097 139.921 33.2411 139.989 35.1608C140.073 37.0804 140.115 38.5118 140.115 39.4548C140.115 39.9095 139.922 40.1367 139.534 40.1367C139.012 40.1367 138.221 40.1283 137.16 40.1114C136.1 40.0946 135.308 40.0868 134.787 40.0868C134.399 40.0868 134.205 39.8758 134.205 39.4548C134.205 38.0908 134.222 36.0362 134.256 33.2915C134.306 30.5469 134.332 28.4843 134.332 27.1035C134.332 22.9441 133.945 19.6011 133.17 17.0751C133.136 16.9407 133.12 16.8398 133.12 16.7724C133.12 16.5704 133.229 16.4269 133.448 16.3427C134.071 16.2753 134.947 16.1741 136.074 16.0394C137.777 15.7239 138.624 15.5564 138.614 15.5364L138.65 15.5403ZM223.666 20.2861C221.646 20.2861 219.971 21.0437 218.64 22.5592C217.378 24.0242 216.747 25.7841 216.747 27.8385C216.747 29.8592 217.386 31.6106 218.666 33.0925C220.013 34.6586 221.68 35.4414 223.666 35.4414C225.67 35.4414 227.337 34.6586 228.667 33.0925C229.93 31.6106 230.561 29.8592 230.561 27.8385C230.561 25.7841 229.93 24.0327 228.667 22.5845C227.354 21.0522 225.687 20.2861 223.666 20.2861ZM115.202 20.0573C113.181 20.0574 111.498 20.8487 110.151 22.4315C108.854 23.9471 108.206 25.7323 108.206 27.7866C108.206 29.8242 108.854 31.5925 110.151 33.0912C111.498 34.6572 113.181 35.4401 115.202 35.4401C117.172 35.4401 118.822 34.6403 120.152 33.0406C121.398 31.5419 122.021 29.7905 122.021 27.7866C122.021 25.7154 121.406 23.9387 120.177 22.4568C118.881 20.8572 117.222 20.0573 115.202 20.0573ZM194.054 20.0573C192.034 20.0574 190.35 20.8487 189.003 22.4315C187.707 23.9471 187.059 25.7323 187.059 27.7866C187.059 29.8242 187.707 31.5925 189.003 33.0912C190.35 34.6572 192.034 35.4401 194.054 35.4401C196.024 35.4401 197.674 34.6403 199.004 33.0406C200.25 31.5419 200.874 29.7905 200.874 27.7866C200.874 25.7154 200.259 23.9387 199.03 22.4568C197.733 20.8572 196.075 20.0573 194.054 20.0573ZM166.998 20.3373C164.675 20.3374 162.057 21.8869 159.144 24.9853V28.7485C160.508 29.0011 162.158 29.1277 164.094 29.1277C166.047 29.1277 167.714 28.757 169.094 28.0161C170.812 27.0899 171.671 25.7345 171.671 23.9495C171.671 21.5415 170.113 20.3373 166.998 20.3373ZM268.039 19.6529C266.49 19.6529 265.109 20.2762 263.897 21.5222C262.702 22.7682 262.104 24.166 262.104 25.7151C262.104 26.0687 262.407 26.246 263.013 26.246C265.505 26.246 268.485 25.9934 271.953 25.4883C272.93 25.3535 273.418 25.1848 273.418 24.9827C273.418 23.5851 272.863 22.3471 271.751 21.2694C270.657 20.1917 269.419 19.6529 268.039 19.6529Z" fill="#FFB752"/>
</svg>
